<svg width="144" height="144" viewBox="0 0 144 144" fill="none" xmlns="http://www.w3.org/2000/svg">
<g clip-path="url(#clip0_517_56081)">
<path d="M62.7 76.8399C69.5042 76.8399 75.02 71.3241 75.02 64.5199C75.02 57.7158 69.5042 52.2 62.7 52.2C55.8959 52.2 50.38 57.7158 50.38 64.5199C50.38 71.3241 55.8959 76.8399 62.7 76.8399Z" stroke="#4B4DED" stroke-width="4" stroke-linecap="round" stroke-linejoin="round"/>
<path d="M89.41 106.09H35.94C36.8795 99.6756 40.0955 93.8133 45.0006 89.5743C49.9056 85.3353 56.1721 83.0027 62.655 83.0027C69.1379 83.0027 75.4044 85.3353 80.3094 89.5743C85.2145 93.8133 88.4305 99.6756 89.37 106.09H89.41Z" stroke="#4B4DED" stroke-width="4" stroke-linecap="round" stroke-linejoin="round"/>
<path d="M61.78 43.52V40.67C61.78 39.1308 62.3908 37.6545 63.4782 36.5652C64.5656 35.4759 66.0408 34.8626 67.58 34.86H93.26L109.03 50.75V91.75C109.027 93.2892 108.414 94.7644 107.325 95.8518C106.235 96.9392 104.759 97.55 103.22 97.55H93.94" stroke="#4B4DED" stroke-width="4" stroke-linecap="round" stroke-linejoin="round"/>
<path d="M91.25 34.8L109.22 52.78H90.97L91.25 34.8Z" fill="#4B4DED"/>
</g>
<defs>
<clipPath id="clip0_517_56081">
<rect width="143.95" height="143.95" fill="white"/>
</clipPath>
</defs>
</svg>
