<svg width="42" height="42" viewBox="0 0 42 42" fill="none" xmlns="http://www.w3.org/2000/svg">
<path d="M27.5166 13.0828H14.568C13.7752 13.0828 13.1325 13.7255 13.1325 14.5183V14.6058C13.1325 15.3986 13.7752 16.0413 14.568 16.0413H27.5166C28.3094 16.0413 28.9521 15.3986 28.9521 14.6058V14.5183C28.9521 13.7255 28.3094 13.0828 27.5166 13.0828Z" stroke="#4B4DED" stroke-width="2" stroke-linecap="round" stroke-linejoin="round"/>
<path d="M14.5505 16.0415V28.853C14.5364 29.4232 14.749 29.9756 15.1417 30.3892C15.5345 30.8027 16.0753 31.0435 16.6454 31.0588H25.4392C26.0094 31.0435 26.5501 30.8027 26.9429 30.3892C27.3356 29.9756 27.5483 29.4232 27.5341 28.853V16.0415" stroke="#4B4DED" stroke-width="2" stroke-linecap="round" stroke-linejoin="round"/>
<path d="M17.3835 13.0829V11.7583C17.3789 11.5751 17.4104 11.3928 17.4762 11.2218C17.542 11.0509 17.6409 10.8945 17.7671 10.7617C17.8934 10.629 18.0446 10.5224 18.2121 10.4481C18.3795 10.3738 18.56 10.3332 18.7432 10.3286H23.3414C23.5246 10.3332 23.7051 10.3738 23.8726 10.4481C24.04 10.5224 24.1912 10.629 24.3175 10.7617C24.4437 10.8945 24.5426 11.0509 24.6084 11.2218C24.6743 11.3928 24.7057 11.5751 24.7011 11.7583V13.0712" stroke="#4B4DED" stroke-width="2" stroke-linecap="round" stroke-linejoin="round"/>
<path d="M20.8935 18.291V28.0944" stroke="#4B4DED" stroke-width="2" stroke-linecap="round" stroke-linejoin="round"/>
<path d="M23.7178 18.291V28.0944" stroke="#4B4DED" stroke-width="2" stroke-linecap="round" stroke-linejoin="round"/>
<path d="M18.3026 18.291V28.0944" stroke="#4B4DED" stroke-width="2" stroke-linecap="round" stroke-linejoin="round"/>
</svg>
