<svg width="48" height="48" viewBox="0 0 48 48" fill="none" xmlns="http://www.w3.org/2000/svg">
<path d="M24.3417 27.7329L19.8669 29.1267C19.7513 29.1591 19.6292 29.1598 19.5133 29.1286C19.3975 29.0974 19.2922 29.0355 19.2085 28.9495C19.1249 28.8635 19.066 28.7565 19.0381 28.6398C19.0102 28.5231 19.0143 28.401 19.0499 28.2864L20.5438 23.9516L31.6343 12.8611C31.862 12.6327 32.1325 12.4515 32.4303 12.3279C32.7281 12.2043 33.0474 12.1406 33.3699 12.1406C33.6924 12.1406 34.0117 12.2043 34.3095 12.3279C34.6073 12.4515 34.8778 12.6327 35.1055 12.8611L35.4389 13.1945C35.6673 13.4222 35.8485 13.6927 35.9721 13.9905C36.0957 14.2884 36.1594 14.6076 36.1594 14.9301C36.1594 15.2526 36.0957 15.5719 35.9721 15.8697C35.8485 16.1675 35.6673 16.438 35.4389 16.6657L24.3417 27.7329Z" stroke="#4B4DED" stroke-width="2" stroke-linecap="round" stroke-linejoin="round"/>
<path d="M23.2715 14.9888H14.345C13.6865 14.9897 13.0551 15.2516 12.5894 15.7173C12.1237 16.183 11.8617 16.8144 11.8608 17.4729V33.4052C11.8617 34.0637 12.1237 34.6951 12.5894 35.1608C13.0551 35.6265 13.6865 35.8885 14.345 35.8894H30.2772C30.9358 35.8885 31.5672 35.6265 32.0328 35.1608C32.4985 34.6951 32.7605 34.0637 32.7614 33.4052V22.7548" stroke="#4B4DED" stroke-width="2" stroke-linecap="round" stroke-linejoin="round"/>
</svg>
