<svg width="114" height="40" viewBox="0 0 114 40" fill="none" xmlns="http://www.w3.org/2000/svg">
<path d="M9.42199 13.8992H15.5309L19.974 9.52775C19.5388 9.39688 19.0864 9.33025 18.6315 9.33002H17.3506H9.29883V13.8931H9.42199V13.8992Z" fill="white"/>
<path d="M23.2349 13.5097C23.1807 12.8703 22.9906 12.2494 22.677 11.6875C22.3635 11.1255 21.9335 10.6353 21.4151 10.2487L17.7202 13.8991H18.6439V18.0394L23.2349 13.5097Z" fill="#4B4DED"/>
<path d="M18.6315 20.1871V27.488H4.64634V9.29649C4.64649 9.12981 4.63723 8.96326 4.61863 8.7976V4.1037C4.61863 3.0336 4.18856 2.00728 3.42297 1.25032C2.65737 0.493363 1.61889 0.0677009 0.53576 0.0668945H0V27.4059H0.0277106V27.4971C0.0277106 28.7073 0.514313 29.868 1.38047 30.7237C2.24663 31.5795 3.4214 32.0602 4.64634 32.0602H18.7609C19.9515 32.0602 21.0934 31.5929 21.9353 30.7611C22.7772 29.9293 23.2502 28.8012 23.2502 27.6249V15.6392L18.6315 20.1871Z" fill="white"/>
<path d="M26.6988 5.47877C26.4244 5.48085 26.162 5.59023 25.9691 5.78297L13.0369 18.5049C12.843 18.6954 12.5807 18.8024 12.3072 18.8024C12.0337 18.8024 11.7713 18.6954 11.5774 18.5049L9.88085 16.8104C9.68685 16.6189 9.42382 16.5113 9.14957 16.5113C8.87531 16.5113 8.61228 16.6189 8.41828 16.8104L7.32521 17.8934C7.13135 18.0851 7.02246 18.3449 7.02246 18.6159C7.02246 18.8868 7.13135 19.1467 7.32521 19.3384L11.5867 23.5395C11.6816 23.6357 11.7951 23.7122 11.9204 23.7645C12.0457 23.8167 12.1804 23.8436 12.3164 23.8437C12.4524 23.8431 12.5868 23.816 12.7121 23.7637C12.8374 23.7115 12.9509 23.6353 13.0461 23.5395L28.5309 8.30483C28.724 8.11277 28.8323 7.85305 28.8323 7.58234C28.8323 7.31163 28.724 7.05191 28.5309 6.85985L27.4316 5.77688C27.3354 5.68191 27.2211 5.60668 27.0954 5.55551C26.9696 5.50435 26.8348 5.47827 26.6988 5.47877Z" fill="#68D9CF"/>
<path d="M36.6689 31.2845V0.9613C36.6689 0.318413 36.9943 -0.00201847 37.645 9.56618e-06H41.5955C42.2462 9.56618e-06 42.5705 0.320441 42.5685 0.9613V11.283H42.7563C43.0993 10.4539 43.7457 9.78273 44.5668 9.40301C45.4152 8.97877 46.3532 8.75882 47.3041 8.76113H48.7913C51.2361 8.76113 53.1246 9.40301 54.4568 10.6868C55.789 11.9705 56.4541 13.8211 56.4521 16.2385V24.7563C56.4521 27.1737 55.787 29.0243 54.4568 30.308C53.1266 31.5918 51.2381 32.2336 48.7913 32.2336H37.6327C36.9902 32.2417 36.6689 31.9254 36.6689 31.2845ZM43.0765 27.2021H47.8122C48.8036 27.2021 49.5077 26.9993 49.9244 26.5937C50.3432 26.1799 50.5402 25.4864 50.5402 24.5068V16.5123C50.5402 15.5368 50.3349 14.8412 49.9244 14.4254C49.5139 14.0097 48.8098 13.8069 47.8122 13.817H45.7707C43.6338 13.817 42.5654 14.9791 42.5654 17.3032V26.7093C42.5581 26.7757 42.566 26.843 42.5885 26.9061C42.6109 26.9691 42.6475 27.0264 42.6953 27.0737C42.7432 27.121 42.8012 27.1571 42.865 27.1793C42.9288 27.2015 42.9969 27.2093 43.0642 27.2021H43.0765Z" fill="white"/>
<path d="M61.3014 4.90685V0.915669C61.3014 0.307257 61.6093 0.00305176 62.2252 0.00305176H66.2649C66.8807 0.00305176 67.1886 0.292043 67.1886 0.873075V4.90989C67.1886 5.5183 66.8807 5.82251 66.2649 5.82251H62.2406C62.1138 5.84176 61.9843 5.83147 61.8624 5.79246C61.7404 5.75345 61.6293 5.68679 61.5381 5.59783C61.4468 5.50886 61.3779 5.40004 61.3368 5.28007C61.2957 5.16009 61.2836 5.03228 61.3014 4.90685ZM61.3014 31.2845V9.81672C61.3014 9.1718 61.6093 8.85239 62.2252 8.85239H66.228C66.8807 8.85239 67.204 9.15659 67.204 9.81672V31.2845C67.2405 31.5612 67.1653 31.841 66.9947 32.0633C66.7846 32.2055 66.5307 32.2701 66.2772 32.2458H62.2744C61.6258 32.2458 61.3014 31.9254 61.3014 31.2845Z" fill="white"/>
<path d="M77.7007 32.2458H73.7533C73.1026 32.2458 72.7782 31.9254 72.7803 31.2845V0.9613C72.7803 0.318413 73.1046 -0.00201847 73.7533 9.56618e-06H77.7007C78.3514 9.56618e-06 78.6767 0.320441 78.6767 0.9613V31.2845C78.6767 31.9274 78.3514 32.2478 77.7007 32.2458Z" fill="white"/>
<path d="M89.167 32.2458H85.2227C84.5719 32.2458 84.2466 31.9254 84.2466 31.2845V0.9613C84.2466 0.318413 84.5719 -0.00201847 85.2227 9.56618e-06H89.167C89.8177 9.56618e-06 90.143 0.320441 90.143 0.9613V31.2845C90.143 31.9274 89.8177 32.2478 89.167 32.2458Z" fill="white"/>
<path d="M99.3375 40H96.3662C95.7504 40 95.4425 39.6623 95.4425 38.9901V35.9176C95.4425 35.2422 95.7504 34.9076 96.3662 34.9076H97.3269C99.279 34.9076 100.602 34.6399 101.296 34.1045C101.99 33.5691 102.524 32.5368 102.9 31.0077H100.437C99.8455 31.0077 99.4607 30.6883 99.2759 30.0434L93.8413 9.81673C93.6566 9.17181 93.8875 8.8524 94.5372 8.8524H98.6724C99.2882 8.8524 99.6762 9.1566 99.8302 9.81673L103.833 26.7427H104.021L107.965 9.81673C107.977 9.67806 108.017 9.54311 108.082 9.41957C108.146 9.29602 108.235 9.18633 108.343 9.09676C108.451 9.0072 108.576 8.93951 108.71 8.89758C108.844 8.85565 108.986 8.8403 109.126 8.8524H113.03C113.802 8.8524 114.11 9.18906 113.954 9.86237L108.288 32.2458C107.609 34.7869 106.557 36.7136 105.132 38.0257C103.708 39.3379 101.776 39.996 99.3375 40Z" fill="white"/>
</svg>
