<svg width="145" height="52" viewBox="0 0 145 52" fill="none" xmlns="http://www.w3.org/2000/svg">
<g clip-path="url(#clip0_584_55575)">
<path d="M11.9843 17.8939H19.7544L25.4057 12.266C24.8522 12.0976 24.2768 12.0118 23.6982 12.0115H22.069H11.8276V17.886H11.9843V17.8939Z" fill="#4B4DED"/>
<path d="M29.5528 17.3927C29.4839 16.5695 29.2421 15.7701 28.8433 15.0467C28.4445 14.3232 27.8975 13.6921 27.2382 13.1943L22.5386 17.894H23.7135V23.2242L29.5528 17.3927Z" fill="#4B4DED"/>
<path d="M23.698 25.9891V35.3884H5.90981V11.9685C5.91 11.7539 5.89824 11.5395 5.87457 11.3262V5.28321C5.87457 3.90555 5.32756 2.58426 4.35377 1.60974C3.37999 0.635222 2.05911 0.0872198 0.681449 0.0861816H0V35.2827H0.035246V35.4002C0.035246 36.9582 0.65417 38.4524 1.75587 39.5541C2.85756 40.6558 4.35178 41.2747 5.90981 41.2747H23.8625C25.3769 41.2747 26.8293 40.6731 27.9001 39.6023C28.971 38.5314 29.5726 37.0791 29.5726 35.5647V20.1341L23.698 25.9891Z" fill="#4B4DED"/>
<path d="M33.9588 7.05348C33.6098 7.05616 33.2761 7.19698 33.0306 7.44511L16.5818 23.8234C16.3353 24.0688 16.0015 24.2065 15.6537 24.2065C15.3058 24.2065 14.9721 24.0688 14.7255 23.8234L12.5676 21.642C12.3208 21.3954 11.9862 21.2569 11.6374 21.2569C11.2886 21.2569 10.954 21.3954 10.7073 21.642L9.31696 23.0362C9.07039 23.283 8.93188 23.6175 8.93188 23.9664C8.93188 24.3152 9.07039 24.6497 9.31696 24.8965L14.7372 30.305C14.858 30.4289 15.0023 30.5274 15.1617 30.5947C15.3211 30.662 15.4924 30.6966 15.6654 30.6967C15.8383 30.696 16.0094 30.661 16.1687 30.5938C16.328 30.5265 16.4724 30.4284 16.5936 30.305L36.2891 10.6918C36.5347 10.4445 36.6725 10.1102 36.6725 9.76164C36.6725 9.41313 36.5347 9.07876 36.2891 8.8315L34.8909 7.43727C34.7685 7.31501 34.6232 7.21815 34.4632 7.15228C34.3032 7.08641 34.1318 7.05284 33.9588 7.05348Z" fill="#68D9CF"/>
<path d="M46.6401 40.276V1.23759C46.6401 0.409928 47.054 -0.0025986 47.8816 1.23156e-05H52.9063C53.734 1.23156e-05 54.1465 0.412539 54.1439 1.23759V14.5259H54.3828C54.8191 13.4585 55.6413 12.5944 56.6856 12.1055C57.7648 11.5594 58.9578 11.2762 60.1673 11.2792H62.0589C65.1685 11.2792 67.5706 12.1055 69.2651 13.7583C70.9595 15.411 71.8055 17.7934 71.8029 20.9056V31.8715C71.8029 34.9837 70.9569 37.3662 69.2651 39.0189C67.5732 40.6716 65.1711 41.498 62.0589 41.498H47.866C47.0487 41.5084 46.6401 41.1011 46.6401 40.276ZM54.7901 35.0203H60.8135C62.0746 35.0203 62.9701 34.7592 63.5001 34.237C64.0328 33.7044 64.2834 32.8114 64.2834 31.5504V21.2581C64.2834 20.0023 64.0223 19.1067 63.5001 18.5715C62.978 18.0362 62.0824 17.7752 60.8135 17.7882H58.217C55.499 17.7882 54.14 19.2843 54.14 22.2764V34.3858C54.1307 34.4714 54.1407 34.558 54.1693 34.6392C54.1979 34.7204 54.2444 34.7941 54.3053 34.855C54.3661 34.9159 54.4399 34.9623 54.5211 34.9909C54.6023 35.0195 54.6889 35.0296 54.7745 35.0203H54.7901Z" fill="#4B4DED"/>
<path d="M77.9711 6.31711V1.17882C77.9711 0.395544 78.3627 0.00390625 79.146 0.00390625H84.2843C85.0676 0.00390625 85.4592 0.375957 85.4592 1.12398V6.32103C85.4592 7.1043 85.0676 7.49594 84.2843 7.49594H79.1656C79.0044 7.52073 78.8397 7.50748 78.6845 7.45725C78.5294 7.40703 78.3882 7.32122 78.2721 7.20668C78.156 7.09214 78.0684 6.95205 78.0161 6.79759C77.9638 6.64314 77.9484 6.47859 77.9711 6.31711ZM77.9711 40.276V12.6381C77.9711 11.8079 78.3627 11.3967 79.146 11.3967H84.2373C85.0676 11.3967 85.4788 11.7883 85.4788 12.6381V40.276C85.5252 40.6322 85.4295 40.9924 85.2125 41.2786C84.9453 41.4617 84.6223 41.5449 84.3 41.5136H79.2087C78.3836 41.5136 77.9711 41.1011 77.9711 40.276Z" fill="#4B4DED"/>
<path d="M98.8299 41.5136H93.8091C92.9815 41.5136 92.5689 41.1011 92.5715 40.276V1.23759C92.5715 0.409928 92.9841 -0.0025986 93.8091 1.23156e-05H98.8299C99.6576 1.23156e-05 100.071 0.412539 100.071 1.23759V40.276C100.071 41.1037 99.6576 41.5162 98.8299 41.5136Z" fill="#4B4DED"/>
<path d="M113.414 41.5136H108.398C107.57 41.5136 107.156 41.1011 107.156 40.276V1.23759C107.156 0.409928 107.57 -0.0025986 108.398 1.23156e-05H113.414C114.242 1.23156e-05 114.656 0.412539 114.656 1.23759V40.276C114.656 41.1037 114.242 41.5162 113.414 41.5136Z" fill="#4B4DED"/>
<path d="M126.35 51.4966H122.571C121.788 51.4966 121.396 51.0619 121.396 50.1963V46.2408C121.396 45.3714 121.788 44.9405 122.571 44.9405H123.793C126.276 44.9405 127.959 44.5959 128.841 43.9066C129.724 43.2173 130.404 41.8884 130.882 39.9197H127.748C126.996 39.9197 126.507 39.5085 126.272 38.6783L119.36 12.6383C119.125 11.808 119.418 11.3968 120.245 11.3968H125.504C126.288 11.3968 126.781 11.7884 126.977 12.6383L132.068 34.429H132.307L137.324 12.6383C137.339 12.4597 137.39 12.286 137.472 12.1269C137.555 11.9679 137.668 11.8267 137.805 11.7114C137.942 11.5961 138.1 11.5089 138.271 11.4549C138.442 11.4009 138.622 11.3812 138.8 11.3968H143.766C144.748 11.3968 145.14 11.8302 144.941 12.697L137.735 41.5137C136.871 44.7852 135.533 47.2656 133.721 48.9548C131.909 50.6441 129.452 51.4913 126.35 51.4966Z" fill="#4B4DED"/>
</g>
<defs>
<clipPath id="clip0_584_55575">
<rect width="145" height="51.4965" fill="white"/>
</clipPath>
</defs>
</svg>
