<svg width="144" height="144" viewBox="0 0 144 144" fill="none" xmlns="http://www.w3.org/2000/svg">
<g clip-path="url(#clip0_585_55032)">
<path d="M101.56 97.1099H51.47C50.5057 97.1113 49.5507 96.9223 48.6596 96.5539C47.7684 96.1855 46.9587 95.6449 46.2769 94.9631C45.595 94.2812 45.0544 93.4715 44.686 92.5804C44.3176 91.6893 44.1287 90.7342 44.13 89.77V53.1099C44.1287 52.1457 44.3176 51.1906 44.686 50.2995C45.0544 49.4084 45.595 48.5987 46.2769 47.9168C46.9587 47.235 47.7684 46.6944 48.6596 46.326C49.5507 45.9576 50.5057 45.7686 51.47 45.77H65.68C67.5317 45.7628 69.3177 46.4557 70.68 47.71L74.56 51.29C75.8882 52.5169 77.6221 53.2111 79.43 53.24L101.65 53.4999C103.581 53.5236 105.425 54.3074 106.782 55.6814C108.139 57.0553 108.9 58.9088 108.9 60.84V89.7799C108.9 90.7434 108.71 91.6974 108.341 92.5873C107.972 93.4773 107.431 94.2858 106.75 94.9666C106.068 95.6474 105.259 96.1871 104.368 96.5549C103.478 96.9226 102.523 97.1113 101.56 97.1099Z" stroke="#4B4DED" stroke-width="4" stroke-linecap="round" stroke-linejoin="round"/>
<path d="M108.71 66H45.83" stroke="#4B4DED" stroke-width="4" stroke-linecap="round" stroke-linejoin="round"/>
<path d="M96.96 81.0601H56.43" stroke="#4B4DED" stroke-width="4" stroke-linecap="round" stroke-linejoin="round"/>
</g>
<defs>
<clipPath id="clip0_585_55032">
<rect width="143.95" height="143.95" fill="white"/>
</clipPath>
</defs>
</svg>
