<svg width="48" height="48" viewBox="0 0 48 48" fill="none" xmlns="http://www.w3.org/2000/svg">
<path d="M42 0H6C2.68629 0 0 2.68629 0 6V42C0 45.3137 2.68629 48 6 48H42C45.3137 48 48 45.3137 48 42V6C48 2.68629 45.3137 0 42 0Z" fill="#4B4DED"/>
<path d="M42 0H6C2.68629 0 0 2.68629 0 6V42C0 45.3137 2.68629 48 6 48H42C45.3137 48 48 45.3137 48 42V6C48 2.68629 45.3137 0 42 0Z" fill="url(#paint0_linear_517_55891)"/>
<path d="M26.4301 17.5101C25.8515 17.5101 25.2785 17.6242 24.744 17.846C24.2095 18.0677 23.724 18.3927 23.3153 18.8023C22.9066 19.212 22.5827 19.6982 22.3621 20.2332C22.1416 20.7682 22.0288 21.3414 22.0301 21.9201H30.8001V35.0101H17.4901V17.4801C17.4901 16.3131 17.0265 15.194 16.2014 14.3688C15.3762 13.5436 14.2571 13.0801 13.0901 13.0801V35.0101C13.0888 35.5888 13.2016 36.162 13.4221 36.697C13.6427 37.2319 13.9666 37.7182 14.3753 38.1278C14.784 38.5375 15.2695 38.8625 15.804 39.0842C16.3385 39.3059 16.9115 39.4201 17.4901 39.4201H30.9301C32.0626 39.4201 33.1487 38.9702 33.9495 38.1694C34.7503 37.3687 35.2001 36.2826 35.2001 35.1501V21.9201C35.2014 21.3414 35.0886 20.7682 34.8681 20.2332C34.6475 19.6982 34.3236 19.212 33.9149 18.8023C33.5062 18.3927 33.0207 18.0677 32.4862 17.846C31.9517 17.6242 31.3788 17.5101 30.8001 17.5101H26.4301Z" fill="white"/>
<path d="M29.5701 21.91V17.51H21.9001V21.91H29.5701Z" fill="white"/>
<path d="M13.0601 8.59009C14.227 8.59009 15.3462 9.05366 16.1713 9.87882C16.9965 10.704 17.4601 11.8231 17.4601 12.9901V34.9301H13.0601V8.59009Z" fill="white"/>
<path d="M39.48 13.8001C39.7423 13.8012 39.9937 13.9054 40.18 14.0901L41.18 15.0901C41.3602 15.2766 41.4609 15.5258 41.4609 15.7851C41.4609 16.0445 41.3602 16.2936 41.18 16.4801L26.4399 31.1601C26.2521 31.3412 26.0009 31.4417 25.74 31.4401C25.4825 31.4391 25.2354 31.3388 25.05 31.1601L20.99 27.1601C20.8068 26.9732 20.7041 26.7219 20.7041 26.4601C20.7041 26.1984 20.8068 25.9471 20.99 25.7601L21.99 24.7601C22.1763 24.5754 22.4276 24.4712 22.6899 24.4701C22.9488 24.4738 23.1962 24.5778 23.3799 24.7601L25.0099 26.3801C25.1964 26.5604 25.4456 26.6611 25.705 26.6611C25.9643 26.6611 26.2135 26.5604 26.4 26.3801L38.71 14.1301C38.8937 13.9478 39.1411 13.8438 39.4 13.8401L39.48 13.8001ZM39.4 12.3701C38.7507 12.3714 38.1285 12.6304 37.67 13.0901L25.67 25.0101L24.39 23.7201C24.1624 23.4938 23.8926 23.3146 23.5957 23.1928C23.2988 23.071 22.9809 23.0089 22.66 23.0101C22.338 23.0074 22.0187 23.0698 21.7214 23.1935C21.4241 23.3172 21.155 23.4997 20.93 23.7301L19.8799 24.7301C19.422 25.1894 19.1648 25.8115 19.1648 26.4601C19.1648 27.1087 19.422 27.7309 19.8799 28.1901L23.93 32.2401C24.3893 32.6981 25.0114 32.9553 25.66 32.9553C26.3086 32.9553 26.9307 32.6981 27.39 32.2401L42.1299 17.5601C42.5903 17.0979 42.8492 16.4724 42.85 15.8201C42.8512 15.4992 42.7891 15.1813 42.6673 14.8844C42.5455 14.5875 42.3662 14.3176 42.14 14.0901L41.14 13.0901C40.9129 12.859 40.6421 12.6754 40.3434 12.5501C40.0446 12.4248 39.7239 12.3602 39.4 12.3601V12.3701Z" stroke="#4B4DED" stroke-width="2" stroke-linecap="round" stroke-linejoin="round"/>
<path d="M25.78 32.2299C25.5543 32.2311 25.3307 32.1865 25.1227 32.0989C24.9148 32.0112 24.7267 31.8823 24.5699 31.72L20.5099 27.67C20.3509 27.5111 20.2248 27.3225 20.1387 27.1149C20.0526 26.9073 20.0083 26.6847 20.0083 26.46C20.0083 26.2352 20.0526 26.0126 20.1387 25.805C20.2248 25.5974 20.3509 25.4088 20.5099 25.25L21.5099 24.2C21.8353 23.8797 22.2735 23.7001 22.73 23.7C22.9547 23.6992 23.1773 23.743 23.385 23.8288C23.5927 23.9146 23.7813 24.0408 23.9399 24.2L25.5699 25.82C25.5911 25.8445 25.6171 25.8643 25.6464 25.8781C25.6757 25.8919 25.7076 25.8993 25.74 25.9C25.7739 25.9001 25.8075 25.8931 25.8386 25.8793C25.8696 25.8655 25.8973 25.8453 25.92 25.82L38.23 13.57C38.3872 13.409 38.5756 13.2816 38.7836 13.1956C38.9916 13.1097 39.2149 13.0669 39.4399 13.07C39.8965 13.0701 40.3346 13.2497 40.66 13.57L41.66 14.62C41.8205 14.779 41.9479 14.9682 42.0349 15.1768C42.1219 15.3853 42.1667 15.609 42.1667 15.835C42.1667 16.0609 42.1219 16.2846 42.0349 16.4932C41.9479 16.7017 41.8205 16.891 41.66 17.05L26.92 31.7299C26.6169 32.0348 26.2095 32.2134 25.78 32.2299Z" fill="#68D9CF"/>
<path d="M39.48 13.8001C39.7423 13.8012 39.9937 13.9054 40.18 14.0901L41.18 15.0901C41.3602 15.2766 41.4609 15.5258 41.4609 15.7851C41.4609 16.0445 41.3602 16.2936 41.18 16.4801L26.4399 31.1601C26.2521 31.3412 26.0009 31.4417 25.74 31.4401C25.4825 31.4391 25.2354 31.3388 25.05 31.1601L20.99 27.1601C20.8068 26.9732 20.7041 26.7219 20.7041 26.4601C20.7041 26.1984 20.8068 25.9471 20.99 25.7601L21.99 24.7601C22.1763 24.5754 22.4276 24.4712 22.6899 24.4701C22.9488 24.4738 23.1962 24.5778 23.3799 24.7601L25.0099 26.3801C25.1964 26.5604 25.4456 26.6611 25.705 26.6611C25.9643 26.6611 26.2135 26.5604 26.4 26.3801L38.71 14.1301C38.8937 13.9478 39.1411 13.8438 39.4 13.8401L39.48 13.8001ZM39.4 12.3701C38.7507 12.3714 38.1285 12.6304 37.67 13.0901L25.67 25.0101L24.39 23.7201C24.1624 23.4938 23.8926 23.3146 23.5957 23.1928C23.2988 23.071 22.9809 23.0089 22.66 23.0101C22.338 23.0074 22.0187 23.0698 21.7214 23.1935C21.4241 23.3172 21.155 23.4997 20.93 23.7301L19.8799 24.7301C19.422 25.1894 19.1648 25.8115 19.1648 26.4601C19.1648 27.1087 19.422 27.7309 19.8799 28.1901L23.93 32.2401C24.3893 32.6981 25.0114 32.9553 25.66 32.9553C26.3086 32.9553 26.9307 32.6981 27.39 32.2401L42.1299 17.5601C42.5903 17.0979 42.8492 16.4724 42.85 15.8201C42.8512 15.4992 42.7891 15.1813 42.6673 14.8844C42.5455 14.5875 42.3662 14.3176 42.14 14.0901L41.14 13.0901C40.9129 12.859 40.6421 12.6754 40.3434 12.5501C40.0446 12.4248 39.7239 12.3602 39.4 12.3601V12.3701Z" fill="#4B4DED"/>
<defs>
<linearGradient id="paint0_linear_517_55891" x1="24" y1="8.13" x2="24" y2="46.62" gradientUnits="userSpaceOnUse">
<stop offset="0.27" stop-color="#4B4DED" stop-opacity="0"/>
<stop offset="1" stop-color="#222377"/>
</linearGradient>
</defs>
</svg>
